<svg xmlns="http://www.w3.org/2000/svg" width="25" height="25" viewBox="0 0 25 25">
    <g fill="none" fill-rule="evenodd">
        <g fill="#000">
            <g>
                <g>
                    <g>
                        <g>
                            <path d="M12 2.027c-5.523 0-10 4.536-10 10.133 0 5.596 4.477 10.133 10 10.133s10-4.537 10-10.133c0-5.597-4.477-10.133-10-10.133zm.725 16.227c-.252.227-.543.34-.873.34-.34 0-.638-.112-.892-.335-.255-.224-.382-.537-.382-.94 0-.356.123-.657.369-.9.246-.244.548-.365.905-.365.353 0 .649.121.89.365.24.243.36.544.36.9 0 .397-.126.709-.377.935zm3.132-7.869c-.193.363-.422.676-.688.94-.265.263-.742.706-1.43 1.33-.19.175-.342.33-.457.463-.114.133-.2.254-.255.365-.056.11-.1.22-.13.331-.031.11-.077.305-.139.582-.106.59-.439.884-.998.884-.29 0-.535-.096-.734-.289-.198-.192-.297-.478-.297-.858 0-.476.072-.888.218-1.236.145-.349.338-.655.579-.918.24-.264.564-.577.972-.94.358-.316.617-.556.776-.717.16-.162.294-.342.403-.54.109-.198.163-.413.163-.646 0-.453-.166-.835-.499-1.147-.333-.311-.762-.467-1.287-.467-.615 0-1.068.157-1.359.471-.29.315-.537.778-.738 1.39-.19.64-.55.96-1.082.96-.313 0-.577-.112-.792-.336-.215-.224-.323-.466-.323-.726 0-.539.17-1.084.512-1.636.34-.553.838-1.01 1.492-1.373.654-.362 1.418-.543 2.29-.543.81 0 1.526.151 2.147.454.62.303 1.1.715 1.438 1.237.338.52.507 1.087.507 1.7 0 .48-.096.903-.289 1.265z" transform="translate(-962 -99) translate(133 71) translate(0 15.188) translate(829.413 3) translate(0 10.133)"/>
                        </g>
                    </g>
                </g>
            </g>
        </g>
    </g>
</svg>
