<svg xmlns="http://www.w3.org/2000/svg" width="25" height="25" viewBox="0 0 25 25">
    <g fill="none" fill-rule="evenodd">
        <g fill="#000">
            <g>
                <g>
                    <g>
                        <g>
                            <path d="M8.294 21.28c-1.17 0-2.118-.961-2.118-2.147v-4.506h.002c.038-1.784 1.032-3.33 2.483-4.132.872.832 2.046 1.343 3.339 1.343 1.293 0 2.468-.51 3.34-1.343 1.48.819 2.484 2.41 2.484 4.24v6.544h-9.53zM12 10.764c-2.105 0-3.812-1.73-3.812-3.863S9.895 3.04 12 3.04c2.105 0 3.812 1.73 3.812 3.862 0 2.134-1.707 3.863-3.812 3.863z" transform="translate(-1010 -99) translate(133 71) translate(0 15.188) translate(829.413 3) translate(48 10.133)"/>
                        </g>
                    </g>
                </g>
            </g>
        </g>
    </g>
</svg>
