<svg xmlns="http://www.w3.org/2000/svg" width="37" height="36" viewBox="0 0 37 36">
    <path fill-rule="evenodd" d="M18 3C9.716 3 3 9.716 3 18c0 8.284 6.716 15 15 15 8.284 0 15-6.716 15-15 0-8.284-6.716-15-15-15zm7.837 9.353L16.85 23.647c-.258.322-.653.53-1.097.53-.443 0-.839-.208-1.096-.53L10.163 18c-.192-.242-.308-.549-.308-.882 0-.39.157-.743.411-.999l.562-.564c.254-.256.605-.414.993-.414.35 0 .668.128.914.34l2.737 3.048 8.308-8.088c.251-.237.589-.382.96-.382.776 0 1.405.632 1.405 1.412 0 .333-.116.64-.308.881z"/>
</svg>
