<svg xmlns="http://www.w3.org/2000/svg" width="37" height="36" viewBox="0 0 37 36">
    <path fill-rule="evenodd" d="M8.261 15.567c-.107.797-.161 1.61-.161 2.433 0 1.877.28 3.694.832 5.402.526 1.626 1.275 3.081 2.225 4.323.922 1.207 1.986 2.148 3.16 2.798 1.173.648 2.412.977 3.683.977s2.51-.329 3.683-.977c1.174-.65 2.238-1.591 3.16-2.798.18-.234.351-.476.516-.725h-4.813c-.371 1.049-1.37 1.8-2.546 1.8-1.54 0-2.778-1.288-2.696-2.846.073-1.392 1.215-2.508 2.608-2.553 1.213-.038 2.254.724 2.634 1.799h5.817c.267-.573.503-1.173.705-1.798.552-1.708.832-3.525.832-5.402 0-.758-.047-1.507-.137-2.243-1.337.77-5.678 1.662-9.763-1.573-1.141-.904-2.183-1.59-3.116-2.108-3.24 1.018-5.447 2.182-6.623 3.491zM29.7 12.6c1.988 0 3.6 1.612 3.6 3.6v3.6c0 1.988-1.612 3.6-3.6 3.6h-.75c-1.669 5.785-5.942 9.9-10.95 9.9-5.008 0-9.281-4.115-10.95-9.9H6.3c-1.988 0-3.6-1.612-3.6-3.6v-3.6c0-1.988 1.612-3.6 3.6-3.6h.75C8.719 6.815 12.992 2.7 18 2.7c5.008 0 9.281 4.115 10.95 9.9h.75z"/>
</svg>
