<svg xmlns="http://www.w3.org/2000/svg" width="24" height="24" viewBox="0 0 24 24">
    <g fill="none" fill-rule="evenodd">
        <g fill="#F3872D">
            <path d="M12 2C6.477 2 2 6.477 2 12s4.477 10 10 10 10-4.477 10-10S17.523 2 12 2zm.725 16.015c-.252.224-.543.336-.873.336-.34 0-.638-.111-.892-.332-.255-.22-.382-.53-.382-.927 0-.352.123-.648.369-.889.246-.24.548-.36.905-.36.353 0 .649.12.89.36.24.24.36.537.36.89 0 .39-.126.698-.377.922zm3.132-7.766c-.193.358-.422.667-.688.927-.265.26-.742.697-1.43 1.312-.19.174-.342.326-.457.457-.114.132-.2.252-.255.36-.056.11-.1.219-.13.328-.031.109-.077.3-.139.574-.106.582-.439.873-.998.873-.29 0-.535-.095-.734-.285-.198-.19-.297-.473-.297-.847 0-.47.072-.877.218-1.22.145-.345.338-.647.579-.906.24-.26.564-.57.972-.927.358-.313.617-.55.776-.709.16-.16.294-.337.403-.532.109-.196.163-.408.163-.638 0-.447-.166-.824-.499-1.132-.333-.307-.762-.461-1.287-.461-.615 0-1.068.155-1.359.465-.29.31-.537.768-.738 1.371-.19.632-.55.948-1.082.948-.313 0-.577-.11-.792-.331-.215-.22-.323-.46-.323-.717 0-.531.17-1.07.512-1.614.34-.546.838-.997 1.492-1.355s1.418-.537 2.29-.537c.81 0 1.526.15 2.147.449.62.3 1.1.706 1.438 1.22.338.515.507 1.074.507 1.677 0 .476-.096.892-.289 1.25z"/>
        </g>
    </g>
</svg>
