<svg xmlns="http://www.w3.org/2000/svg" width="24" height="24" viewBox="0 0 24 24">
    <g fill="none" fill-rule="evenodd">
        <g fill="#F3872D">
            <path d="M8.294 21c-1.17 0-2.118-.948-2.118-2.118v-4.447h.002c.038-1.76 1.032-3.285 2.483-4.078.872.822 2.046 1.325 3.339 1.325 1.293 0 2.468-.503 3.34-1.325 1.48.808 2.484 2.379 2.484 4.184V21h-9.53zM12 10.624c-2.105 0-3.812-1.707-3.812-3.812C8.188 4.707 9.895 3 12 3c2.105 0 3.812 1.707 3.812 3.812 0 2.105-1.707 3.812-3.812 3.812z"/>
        </g>
    </g>
</svg>
