<svg xmlns="http://www.w3.org/2000/svg" xmlns:xlink="http://www.w3.org/1999/xlink" width="26" height="40" viewBox="0 0 26 40">
    <defs>
        <path id="5b6phz727a" d="M1.507 0h22.986C25.325 0 26 .651 26 1.455v37.09C26 39.35 25.325 40 24.493 40H1.507C.675 40 0 39.35 0 38.546V1.455C0 .65.675 0 1.507 0z"/>
        <path id="aofbr68med" d="M26 15.55v.196l-.017.03c-.407.695-.746 1.526-1.081 2.442l-.317.872c-.077.21-.157.422-.242.637l-.133.323c-.108.273-.24.542-.37.817l-.07.137-.148.27c-.05.091-.099.183-.153.272l-.345.533-.375.486-.078.097-.415.448c-.028.031-.059.062-.09.094-.488.463-1.034.89-1.64 1.25-.609.353-1.261.651-1.932.915-.67.264-1.357.495-2.03.755-.673.261-1.343.537-1.96.897-.556.324-1.043.678-1.525 1.116l-.18.168-.349.379c-.062.062-.118.13-.172.199l-.32.415-.051.071-.095.147c-.092.148-.196.289-.279.443-.356.6-.623 1.249-.876 1.901-.252.655-.475 1.322-.734 1.98-.26.657-.556 1.303-.916 1.912l-.36.555-.249.321c-.109.15-.221.28-.334.403l-.382.41-.539.487-.1.079-.508.382-.423.268c-.092.062-.187.117-.282.17l-.43.232c-.047.025-.095.05-.143.072-.217.102-.43.204-.644.297l-.214.088c-.43.181-.85.337-1.256.484H1.507c-.226 0-.44-.048-.634-.134.418-.17.859-.33 1.314-.486l.982-.333c.215-.074.432-.15.649-.23l.324-.124c.275-.101.54-.222.813-.342l.134-.063.265-.136c.09-.045.179-.09.266-.14l.518-.31.466-.334.092-.07.504-.432.013-.013c.185-.197.396-.396.564-.596l.094-.12.221-.272.343-.5c.344-.553.64-1.153.906-1.783.267-.63.507-1.293.781-1.956.276-.663.573-1.336.969-1.97l.098-.157.317-.464.056-.075.356-.439c.03-.036.06-.072.092-.107l.502-.517c.526-.483 1.178-.955 1.833-1.31.661-.365 1.361-.633 2.051-.883.692-.248 1.383-.463 2.047-.707.664-.243 1.303-.517 1.898-.843.59-.333 1.124-.73 1.604-1.165l.074-.072.435-.448.076-.09.366-.453.262-.383c.06-.083.114-.17.165-.256l.228-.392c.025-.044.05-.087.071-.132l.2-.397c.065-.132.128-.264.184-.398.144-.317.273-.633.396-.944l.24-.613c.39-1.008.782-1.93 1.25-2.686L26 15.55zm0 3.106v.384l-.447 1.225-.186.486c-.032.082-.066.164-.101.246l-.157.374-.267.564-.31.564-.117.185-.12.185c-.052.083-.105.166-.164.247l-.372.482c-.042.053-.087.103-.133.153l-.378.41-.033.032-.44.397c-.489.407-1.027.787-1.62 1.09-1.176.635-2.5 1.032-3.769 1.53-.634.25-1.255.533-1.841.871l-.341.217c-.17.11-.336.223-.488.346-.098.074-.197.147-.294.23l-.096.088-.376.34c-.465.479-.878 1-1.219 1.566-.333.57-.607 1.172-.85 1.788-.48 1.23-.858 2.52-1.498 3.694l-.16.292c-.027.048-.055.096-.084.143l-.271.417c-.063.105-.144.205-.223.305l-.232.3-.077.098-.507.547-.484.438c-.04.035-.08.07-.122.102l-.379.286c-.081.066-.167.125-.254.182l-.131.083c-.131.082-.26.167-.39.246l-.39.21-2.35.001.549-.194c.082-.03.165-.062.247-.095l.375-.146.559-.246.552-.281.179-.106.18-.109c.08-.047.161-.095.24-.147l.462-.332c.05-.037.1-.078.148-.12l.417-.358.486-.5.069-.085.136-.168c.067-.087.14-.167.207-.256l.321-.468c.085-.127.157-.264.236-.396.624-1.07 1.03-2.32 1.557-3.577.267-.629.571-1.257.943-1.857.333-.522.727-1.01 1.163-1.458l.19-.19.403-.348c.125-.115.276-.222.424-.328.292-.225.602-.4.908-.585.628-.342 1.282-.618 1.936-.859 1.308-.475 2.617-.834 3.767-1.419.582-.279 1.107-.631 1.588-1.01l.448-.386.434-.446c.034-.036.068-.073.1-.11l.274-.338c.063-.073.12-.15.175-.23l.08-.118c.081-.119.164-.235.241-.353l.317-.544.277-.548.164-.366c.112-.24.206-.484.304-.72.216-.54.415-1.06.615-1.547zm0 3.572v.44c-.347.732-.79 1.485-1.415 2.164-.75.834-1.737 1.572-2.87 2.089-1.124.54-2.356.907-3.534 1.39-.51.202-1 .44-1.47.707l-.235.137-.398.255-.126.09-.43.326-.54.49-.465.506-.141.185-.19.246-.091.124-.252.39c-.318.529-.595 1.08-.82 1.656-.466 1.143-.811 2.342-1.35 3.459-.125.282-.285.55-.43.82l-.08.13-.168.258c-.055.086-.11.172-.17.256l-.38.493c-.071.094-.145.169-.218.247l-.324.352-.054.052-.328.298c-.081.073-.164.144-.248.213H7.702c.427-.238.844-.515 1.234-.848l.336-.289.4-.41c.034-.035.068-.07.098-.104l.295-.362c.058-.066.112-.14.165-.216l.079-.116c.078-.115.16-.229.236-.349l.216-.368c.036-.062.072-.125.106-.188l.098-.195c.537-1.032.914-2.208 1.429-3.38.214-.505.472-1.004.766-1.486l.15-.24.28-.41.051-.066.263-.324.158-.194.174-.18.36-.369.554-.475.485-.35.14-.095.43-.26c.581-.327 1.186-.608 1.8-.832 1.221-.463 2.449-.793 3.553-1.29 1.116-.475 2.075-1.152 2.831-1.946.724-.745 1.222-1.606 1.611-2.43zm0 2.796v.346c-.309.4-.668.786-1.078 1.144-.383.347-.824.651-1.289.939-.239.132-.479.27-.73.392-.252.119-.505.244-.768.349-1.044.443-2.158.788-3.223 1.248-.454.201-.904.416-1.326.673l-.45.287-.116.083-.336.255c-.057.04-.112.085-.167.134l-.493.447-.28.306c-.063.07-.129.138-.19.21l-.087.112-.258.337c-.087.11-.156.235-.234.352-.311.47-.556.98-.781 1.493-.442 1.034-.765 2.115-1.199 3.149-.101.26-.226.511-.343.763-.121.25-.262.491-.395.732l-.224.347c-.074.115-.145.23-.235.34l-.213.277c-.07.092-.141.181-.213.262H10.14c.113-.1.225-.205.334-.314l.163-.168c.09-.09.18-.182.248-.274l.225-.276c.053-.059.1-.125.148-.193l.284-.413c.129-.217.265-.435.385-.665l.178-.35c.03-.06.058-.119.086-.179l.083-.183c.444-.972.802-2.048 1.296-3.115.252-.53.528-1.063.877-1.56l.171-.249.093-.12.288-.355c.062-.08.131-.155.202-.228l.436-.446.507-.434c.029-.023.058-.047.089-.07l.474-.34c.126-.093.261-.162.39-.244.521-.32 1.077-.57 1.63-.796 1.112-.442 2.234-.754 3.268-1.158.261-.095.51-.21.76-.318.247-.111.482-.239.718-.36.457-.265.892-.546 1.273-.871.485-.399.902-.84 1.254-1.298zm0 2.154v.276l-.13.12c-.32.269-.668.533-1.05.767-.76.478-1.635.86-2.546 1.202l-1.036.385c-.579.216-1.16.443-1.722.712-.453.21-.884.462-1.297.737-.207.136-.39.293-.587.437l-.095.081-.462.422c-.7.697-1.234 1.526-1.642 2.4-.411.876-.709 1.793-1.036 2.688-.325.895-.697 1.769-1.181 2.543l-.034.052h-1.08l.01-.011c.129-.143.236-.323.357-.49.465-.687.844-1.491 1.194-2.357.352-.866.69-1.797 1.157-2.706.429-.844.987-1.663 1.686-2.353l.164-.157.496-.423c.033-.027.066-.055.101-.081.22-.154.434-.322.66-.46.449-.277.912-.526 1.389-.728.95-.416 1.918-.708 2.831-1.019.914-.31 1.778-.652 2.532-1.091.38-.215.725-.46 1.046-.712l.275-.234zm0 1.82v.223c-.448.293-.949.57-1.494.815-.678.305-1.414.574-2.166.856-.751.283-1.52.585-2.244.977-.363.192-.714.416-1.042.655l-.36.277-.119.1-.468.43-.401.445c-.134.152-.248.32-.372.48-.234.328-.447.67-.63 1.026-.37.708-.647 1.452-.908 2.186l-.259.73c-.173.484-.349.958-.545 1.411-.057.133-.118.263-.18.391h-1.02c.138-.232.271-.477.396-.736.304-.628.578-1.325.872-2.056.295-.73.617-1.496 1.045-2.235.21-.37.455-.73.722-1.073l.277-.337.146-.163.47-.477.487-.411c.166-.136.36-.261.538-.39.368-.246.743-.463 1.132-.65.775-.379 1.572-.655 2.338-.908l.65-.214c.534-.177 1.049-.353 1.533-.548.588-.236 1.124-.51 1.602-.804zm0 1.595v.2l-.03.016c-.434.216-.91.427-1.416.622-.59.235-1.22.457-1.853.713-.633.257-1.278.538-1.881.898-.543.327-1.021.685-1.494 1.125l-.177.17-.34.38c-.062.062-.116.13-.169.199l-.311.415-.074.106-.25.399c-.03.048-.06.097-.087.147-.339.593-.594 1.22-.827 1.837-.185.494-.35.988-.519 1.465l-.128.355c-.044.122-.089.242-.134.36h-.983c.067-.14.133-.286.198-.435l.096-.228c.24-.557.47-1.163.74-1.79.272-.625.574-1.274.97-1.893l.1-.154.212-.303c.076-.116.163-.225.253-.332l.269-.323c.03-.036.06-.071.093-.106l.505-.508c.529-.473 1.179-.933 1.823-1.275.652-.348 1.33-.605 1.984-.836.546-.19 1.08-.355 1.588-.524l.3-.101c.465-.154.9-.32 1.304-.494l.239-.105zm0 1.454v.201c-.275.115-.565.23-.865.346l-.305.116c-.515.196-1.056.401-1.6.638-.548.23-1.086.515-1.605.837l-.38.256-.082.06-.452.356-.174.16-.337.316c-.414.447-.798.917-1.099 1.43-.3.513-.56 1.038-.765 1.573-.127.319-.242.636-.352.949l-.247.715h-.953l.16-.387.207-.506c.142-.344.295-.701.463-1.063.246-.545.555-1.095.91-1.627.311-.467.69-.899 1.096-1.303l.175-.172.464-.39.093-.075.474-.335c.045-.032.09-.062.137-.09l.416-.249c.564-.31 1.14-.573 1.71-.778.456-.17.903-.316 1.332-.454l.318-.102c.447-.141.869-.282 1.262-.422zm0 1.38v.215l-.783.304c-.446.174-.912.366-1.378.589-.47.216-.929.482-1.371.778l-.326.232-.104.082-.354.291-.15.142-.3.286-.39.437-.282.365c-.027.034-.053.07-.078.105l-.215.326c-.274.44-.514.89-.705 1.35-.156.36-.292.72-.416 1.071h-.93l.007-.017c.183-.436.386-.898.626-1.368.233-.471.524-.942.85-1.398l.256-.336.091-.109.33-.374.152-.15.314-.308.478-.4.411-.297c.04-.028.078-.055.118-.081l.36-.224c.486-.283.982-.53 1.477-.722.493-.199.977-.363 1.437-.51l.876-.28zm0 1.36v.243l-.166.068-.169.071c-.382.16-.779.34-1.174.55-.397.203-.786.448-1.16.716l-.277.209-.132.11-.259.221-.386.375-.34.38-.105.135c-.07.09-.143.178-.21.27l-.193.278c-.246.377-.464.76-.642 1.152-.068.145-.132.29-.193.435h-.91c.122-.253.255-.512.402-.772.221-.403.49-.803.786-1.19l.23-.286.124-.138.25-.274.409-.393.415-.348.151-.112c.102-.074.202-.151.304-.221l.309-.2c.416-.255.84-.48 1.266-.66.422-.187.84-.341 1.238-.475l.218-.074.214-.07zm0 1.39v.29l-.045.021c-.26.125-.523.264-.786.418-.33.189-.652.41-.965.65l-.23.184-.11.097-.11.097c-.142.119-.295.286-.429.415-.266.292-.52.59-.736.91-.167.244-.32.49-.457.741h-.889l.085-.136c.205-.338.448-.671.713-.994.264-.325.568-.624.88-.912.13-.106.237-.204.36-.301l.128-.098c.087-.064.172-.13.258-.191l.261-.175c.352-.225.709-.427 1.068-.593.34-.165.68-.303 1.004-.423zm0 1.471v.368l-.068.043-.462.318-.086.065-.478.389-.091.086-.448.438-.397.467-.077.094-.059.084h-.866l.021-.026.4-.46.094-.092.479-.459.512-.407.102-.078.514-.34c.049-.032.098-.062.147-.09l.441-.242c.104-.061.214-.11.322-.158zm-.856 2.21l.27-.214.083-.063.154-.105c-.138.16-.31.29-.507.382zM26 13.223v.122l-.124.133c-.05.051-.097.107-.143.165l-.276.358c-.049.06-.094.123-.137.189l-.26.402c-.13.207-.243.432-.37.657-.224.463-.446.957-.641 1.488l-.614 1.66c-.214.574-.463 1.162-.776 1.744l-.16.29c-.027.049-.055.097-.085.144l-.277.426c-.045.072-.097.141-.15.21l-.323.414-.086.097-.353.381-.096.1-.4.36c-.064.063-.135.12-.207.175l-.218.164c-.146.11-.29.224-.45.318-.614.412-1.296.738-1.996 1.024-.701.287-1.422.534-2.134.8-.712.264-1.414.555-2.068.923-.66.37-1.242.798-1.79 1.324-.52.526-.964 1.116-1.325 1.753-.364.636-.647 1.314-.903 2.006-.258.691-.498 1.393-.782 2.081-.282.688-.61 1.365-1.033 1.98-.072.119-.157.233-.244.346l-.228.293c-.047.06-.094.12-.141.174l-.451.486-.039.036-.356.322c-.549.477-1.146.885-1.762 1.2-.612.323-1.232.583-1.828.805l-1.704.63c-.197.072-.387.147-.57.224-.247-.214-.42-.505-.478-.834.23-.092.464-.18.703-.262.559-.2 1.138-.385 1.72-.592.586-.203 1.171-.435 1.742-.72.576-.277 1.119-.633 1.625-1.053l.363-.314.366-.378c.133-.126.22-.254.327-.381.104-.128.21-.253.302-.4.804-1.109 1.276-2.481 1.831-3.873.277-.697.59-1.404.994-2.073.4-.67.895-1.296 1.466-1.847.57-.527 1.246-1.005 1.94-1.37.699-.373 1.433-.656 2.16-.907l1.082-.37c1.074-.367 2.11-.749 3.01-1.325.117-.065.226-.14.333-.217l.32-.23c.035-.026.07-.052.103-.08l.49-.422.119-.117.331-.342.088-.094.156-.193c.101-.131.214-.251.306-.389l.277-.407c.09-.135.166-.28.249-.417.318-.56.578-1.134.804-1.7l.652-1.645c.21-.529.445-1.024.684-1.487l.257-.445c.043-.072.087-.143.132-.212l.207-.303c.045-.067.09-.132.137-.195l.291-.36c.047-.059.094-.117.143-.172l.268-.278zm0-1.92v.09c-.336.26-.677.563-1.006.923-.616.66-1.175 1.51-1.61 2.508l-.09.216c-.141.325-.27.665-.4 1.013l-.259.71c-.217.6-.45 1.224-.744 1.845-.14.314-.315.618-.489.928l-.293.45c-.095.153-.22.293-.329.44-.454.568-.99 1.11-1.621 1.555-.625.452-1.323.827-2.05 1.14-.728.315-1.485.572-2.23.847-.654.24-1.3.496-1.914.808l-.26.138-.26.14-.494.314-.12.081-.342.259c-.051.037-.102.075-.152.117l-.075.066-.447.403-.383.416c-.046.046-.087.095-.126.145l-.235.305c-.061.073-.117.152-.17.231l-.312.482-.139.252c-.372.67-.66 1.384-.927 2.108l-.318.873c-.16.438-.325.875-.514 1.305-.313.718-.688 1.406-1.16 2.041l-.246.316c-.04.052-.082.102-.124.15l-.447.483-.026.025-.55.494-.228.173c-.154.112-.299.237-.46.335l-.475.3-.39.214c-.194.104-.388.204-.586.291-.559.26-1.117.476-1.655.672l-.994.363c-.119.043-.236.087-.351.13v-.975c.861-.297 1.757-.576 2.627-.959.312-.13.608-.288.911-.446l.438-.264c.112-.065.214-.143.318-.22l.315-.226.516-.444.45-.464c.122-.134.219-.269.331-.403.432-.555.803-1.192 1.114-1.867.316-.676.579-1.395.867-2.124.251-.637.525-1.283.865-1.907l.15-.265.153-.264.173-.255c.087-.127.17-.256.264-.38l.293-.36c.043-.054.086-.108.132-.159l.513-.53.456-.393c.048-.045.102-.087.159-.129l.343-.248c.084-.065.171-.123.26-.178l.532-.321.276-.142c.734-.38 1.503-.668 2.262-.929l1.13-.384c.373-.129.74-.261 1.097-.408.715-.29 1.392-.635 2-1.055.614-.412 1.139-.92 1.595-1.464.106-.14.226-.265.321-.412l.294-.43c.175-.297.352-.589.496-.894.252-.502.464-1.01.66-1.51l.393-1.004c.092-.232.184-.46.28-.682l.146-.33c.475-1.095 1.102-2.024 1.787-2.726.305-.32.62-.593.93-.83l.154-.114zm0-1.66v.075c-.456.257-.937.576-1.407.984-.768.663-1.492 1.56-2.028 2.667-.278.55-.505 1.15-.738 1.771l-.35.954c-.12.323-.245.65-.385.98-.28.655-.605 1.323-1.045 1.948-.182.245-.37.5-.575.73l-.156.168-.197.211-.074.075-.147.132c-.15.13-.29.273-.45.394-.622.51-1.345.915-2.096 1.26-.754.343-1.542.618-2.322.903-.78.284-1.555.582-2.278.967l-.27.146c-.045.024-.09.05-.133.076l-.515.327-.516.39-.078.068-.457.412c-.57.57-1.045 1.22-1.423 1.924-.333.615-.597 1.266-.844 1.926l-.383 1.044c-.188.507-.384 1.014-.614 1.509-.169.372-.365.734-.574 1.086l-.336.515-.386.496c-.028.039-.057.073-.087.106l-.468.506-.055.05-.226.204c-.291.28-.62.513-.942.746-.658.45-1.361.786-2.047 1.074-.475.2-.944.372-1.399.536v-.933c.353-.12.706-.247 1.058-.385.657-.261 1.312-.559 1.916-.955.236-.164.478-.327.703-.513l.165-.145.248-.214.354-.366c.044-.046.092-.093.134-.14l.4-.494.32-.466c.2-.322.39-.654.557-1.003.341-.696.622-1.441.919-2.2.297-.758.614-1.532 1.035-2.27.38-.67.85-1.305 1.402-1.864l.168-.165.484-.42c.12-.102.258-.198.393-.294l.267-.193.416-.254c.182-.117.378-.209.569-.309.673-.34 1.372-.604 2.066-.845l1.083-.37c.52-.18 1.031-.364 1.523-.576.735-.32 1.435-.692 2.04-1.168.117-.085.223-.181.33-.276l.253-.217.064-.06.2-.208c.28-.272.498-.56.723-.85.437-.592.768-1.236 1.058-1.876.29-.641.528-1.286.772-1.907.248-.62.49-1.222.785-1.774.568-1.113 1.33-2.015 2.118-2.666.498-.415 1.003-.732 1.478-.985zm0-1.506v.068c-.547.238-1.145.538-1.744.952-.871.596-1.722 1.462-2.378 2.56-.324.553-.598 1.161-.852 1.803-.255.641-.482 1.32-.751 2.01-.269.69-.579 1.395-.992 2.07-.109.165-.215.334-.328.5l-.376.484c-.057.07-.117.136-.178.201l-.36.386-.09.082-.231.208c-.623.556-1.349 1.021-2.126 1.396-.554.27-1.131.496-1.713.71l-.698.254c-.814.294-1.626.595-2.384.989-.378.195-.744.417-1.086.657l-.332.249-.164.131-.476.428c-.596.592-1.085 1.274-1.471 2.01-.341.644-.608 1.325-.863 2.016l-.109.296c-.288.791-.576 1.593-.956 2.36-.153.305-.317.607-.5.896l-.141.215c-.082.136-.181.268-.282.397l-.304.388-.207.225c-.57.624-1.236 1.17-1.95 1.585-.64.382-1.307.68-1.958.938v-.91c.52-.204 1.034-.435 1.527-.715.595-.332 1.143-.749 1.64-1.241l.162-.167.212-.22.178-.222c.12-.147.243-.292.35-.46.228-.32.428-.665.615-1.02.267-.51.494-1.049.714-1.603l.262-.67c.306-.788.626-1.596 1.055-2.368.387-.702.87-1.367 1.446-1.949l.175-.172.504-.435c.171-.14.367-.272.55-.407.378-.254.765-.479 1.169-.677.703-.347 1.434-.613 2.156-.861l.309-.106c.822-.278 1.632-.55 2.388-.9.682-.312 1.318-.692 1.88-1.143l.185-.153.302-.261.03-.03.385-.398c.046-.048.09-.097.133-.146l.362-.449c.112-.156.218-.317.327-.475.412-.645.73-1.327 1.01-2.005.282-.677.524-1.353.794-1.996s.562-1.255.904-1.811l.088-.137.315-.464.441-.546.316-.327c.414-.432.865-.785 1.312-1.083.625-.414 1.243-.707 1.804-.937zm0-1.41v.065c-.61.227-1.295.502-2.004.89-.484.267-.98.59-1.443.988-.116.1-.23.21-.347.316-.116.102-.217.228-.328.343-.228.227-.418.494-.625.756-.382.546-.718 1.154-1.006 1.81-.29.656-.532 1.36-.799 2.079-.266.72-.556 1.461-.95 2.182l-.149.27c-.025.044-.051.089-.078.133l-.343.524-.098.127c-.134.165-.259.346-.401.5l-.436.469c-.62.605-1.356 1.12-2.154 1.532-.698.363-1.438.649-2.18.92l-.637.23c-.742.268-1.48.543-2.174.895l-.39.21-.192.109-.373.236c-.062.04-.123.08-.182.121l-.344.259-.172.133-.505.454-.435.47c-.139.167-.267.342-.4.512-.043.059-.083.118-.123.178l-.236.363c-.111.186-.211.378-.317.566-.3.577-.54 1.184-.768 1.799l-.227.617c-.3.825-.611 1.66-1.031 2.448-.21.396-.445.773-.711 1.14l-.21.27c-.071.091-.142.18-.214.261l-.454.488-.485.436c-.123.11-.258.207-.39.305l-.263.198-.138.088-.276.175c-.18.121-.373.218-.561.32-.15.08-.3.155-.451.228v-.907l.32-.164c.044-.023.088-.047.13-.072l.51-.31.12-.087c.16-.12.33-.227.482-.357l.444-.384.443-.458c.14-.154.252-.31.382-.464.243-.321.472-.67.673-1.034.357-.638.645-1.327.923-2.038l.118-.305c.317-.817.637-1.66 1.076-2.467l.23-.399c.039-.066.078-.132.119-.197l.26-.383c.044-.064.089-.127.135-.19l.292-.362.15-.179.497-.513.514-.444c.184-.144.384-.282.575-.422.196-.132.4-.247.599-.37.204-.114.414-.216.62-.324.63-.305 1.28-.544 1.926-.768l.643-.22c.854-.288 1.69-.58 2.466-.964.776-.382 1.484-.859 2.09-1.427l.434-.448c.108-.114.2-.233.293-.351l.19-.234.255-.375c.119-.162.214-.339.314-.51.346-.606.62-1.236.87-1.86l.106-.268c.28-.711.537-1.415.845-2.075.306-.66.661-1.275 1.063-1.825l.255-.316c.085-.104.17-.206.26-.303l.138-.14c.117-.117.22-.24.343-.345.12-.105.235-.211.355-.31.485-.402.991-.716 1.486-.977.733-.384 1.434-.649 2.056-.866zm0-1.372v.063l-.679.244c-.47.172-.977.364-1.504.598-1.056.464-2.182 1.153-3.104 2.207-.456.525-.864 1.125-1.202 1.789-.29.57-.533 1.181-.768 1.815l-.356.966c-.201.543-.418 1.096-.682 1.643l-.069.144-.071.143-.235.424-.081.141-.36.55-.414.532-.11.122-.113.12c-.604.663-1.34 1.241-2.159 1.694-.726.406-1.506.72-2.29 1.01l-.958.347c-.662.241-1.317.491-1.94.797l-.206.106-.406.219-.582.367-.537.405-.516.464c-.65.636-1.169 1.383-1.57 2.19-.404.807-.706 1.665-1.022 2.525-.315.86-.653 1.727-1.12 2.536-.193.337-.405.66-.647.976l-.26.329-.056.063-.397.427-.069.073-.323.29c-.374.334-.776.628-1.194.888v-.937c.169-.115.333-.237.493-.365l.177-.147.3-.258.45-.467.056-.06.096-.122c.265-.314.515-.667.738-1.038.398-.66.711-1.384 1.008-2.132l.359-.921c.252-.644.518-1.296.851-1.929.405-.78.928-1.52 1.563-2.156l.162-.156.543-.472c.198-.147.401-.293.602-.438.208-.127.416-.255.626-.378l.431-.223c.073-.037.145-.073.218-.107.659-.309 1.336-.553 2.007-.783l.667-.228c.886-.303 1.751-.618 2.542-1.043.728-.385 1.383-.866 1.945-1.426l.265-.274.112-.12.397-.491.356-.523.081-.135.235-.406c.052-.09.095-.186.142-.278.268-.528.492-1.069.704-1.606l.25-.641c.288-.744.579-1.47.937-2.142.358-.671.788-1.279 1.265-1.806.475-.531 1.011-.96 1.557-1.323.545-.358 1.1-.64 1.638-.864.813-.342 1.569-.588 2.228-.812zm0-1.389v.065c-.658.26-1.42.523-2.248.833-.566.21-1.156.465-1.75.781l-.296.163c-.05.028-.098.057-.146.088l-.438.283-.338.252c-.169.13-.336.265-.497.42-.534.49-1.037 1.064-1.435 1.733-.407.662-.733 1.398-1.027 2.171-.297.773-.567 1.584-.916 2.395-.32.744-.71 1.48-1.237 2.163l-.257.324-.471.507-.034.033-.37.333c-.138.134-.294.246-.449.362l-.116.087c-.188.152-.402.27-.606.404-.749.459-1.569.808-2.398 1.117l-.277.101c-.922.337-1.851.65-2.724 1.069-.222.096-.426.222-.64.332-.212.115-.407.253-.611.377l-.19.138-.374.28-.539.482c-.679.663-1.208 1.45-1.62 2.295-.415.845-.722 1.744-1.055 2.642-.33.897-.705 1.8-1.227 2.626l-.24.368c-.028.04-.056.08-.086.12l-.339.434c-.04.051-.082.102-.124.149l-.096.101-.353.38L0 30.8v-1.02l.27-.28c.139-.134.242-.27.35-.405l.082-.102c.143-.162.26-.36.389-.543.497-.754.87-1.6 1.212-2.482l.259-.666c.26-.67.531-1.351.871-2.013.415-.815.947-1.595 1.61-2.258l.168-.164.568-.49.418-.305c.07-.05.14-.1.212-.147.219-.13.43-.272.655-.39.17-.084.336-.177.507-.26l.173-.077c.918-.42 1.869-.722 2.79-1.04.92-.315 1.813-.662 2.618-1.136l.298-.18c.05-.03.099-.062.147-.094l.42-.303c.047-.034.092-.069.137-.105l.475-.41.035-.033.481-.499.105-.129c.573-.674 1.017-1.453 1.37-2.239.358-.788.643-1.593.956-2.367.312-.774.658-1.52 1.087-2.191.42-.677.947-1.256 1.503-1.75.268-.249.574-.461.864-.67l.45-.28c.149-.092.306-.165.455-.247.607-.31 1.207-.556 1.78-.757l.553-.194c.631-.218 1.214-.413 1.733-.609zm0-1.459v.072c-.151.074-.309.148-.471.222-.42.18-.876.36-1.363.538l-.94.34c-1.026.372-2.143.81-3.183 1.534l-.461.346-.222.196-.335.3-.44.474c-.024.025-.046.05-.067.077l-.187.24c-.503.643-.91 1.384-1.248 2.179-.341.795-.622 1.642-.956 2.5-.333.855-.73 1.726-1.295 2.526-.15.196-.304.393-.458.588l-.373.4-.132.14-.374.335-.19.166-.406.305c-.069.05-.138.1-.208.147-.85.571-1.806.988-2.772 1.347-.966.361-1.946.678-2.864 1.108l-.23.107-.113.056-.333.18c-.17.083-.327.187-.485.288l-.159.1c-.049.028-.094.06-.138.092l-.457.342-.128.11-.447.4-.243.264-.169.18-.08.093-.227.292c-.075.098-.156.192-.22.298-.097.156-.205.306-.3.464l-.268.484c-.058.108-.108.222-.162.333-.428.89-.738 1.836-1.097 2.779-.357.94-.776 1.88-1.364 2.724-.135.194-.29.381-.436.57V27.53c.471-.705.836-1.493 1.164-2.313.368-.915.7-1.878 1.166-2.805l.116-.232.061-.115.196-.34c.092-.173.206-.335.318-.498l.11-.163c.032-.05.066-.097.103-.143l.387-.481.089-.099.47-.487.388-.337.2-.167.328-.24c.11-.078.218-.163.334-.228.172-.101.339-.212.513-.31l.53-.274c.118-.059.241-.109.361-.164.965-.432 1.964-.735 2.922-1.076.958-.339 1.883-.724 2.702-1.255.204-.132.395-.282.592-.421.186-.153.364-.314.546-.47l.502-.517.437-.544c.555-.757.957-1.595 1.301-2.436.346-.841.642-1.688 1.004-2.49.357-.802.788-1.557 1.316-2.208l.197-.244.069-.077.467-.484.114-.1c.153-.13.3-.262.453-.389l.483-.35c1.018-.683 2.087-1.097 3.074-1.441l.823-.282c.602-.202 1.157-.408 1.663-.616.173-.075.341-.15.503-.227zm-.083-1.53l.02.061-.014.01c-.619.387-1.363.752-2.208 1.072-.613.24-1.276.461-1.963.721-.686.26-1.4.553-2.091.952l-.51.32c-.076.048-.149.1-.22.155l-.394.296-.06.05-.451.406-.072.07-.215.232c-.578.618-1.06 1.351-1.446 2.156-.39.805-.69 1.675-1.02 2.565-.298.807-.635 1.635-1.104 2.417l-.145.233-.207.317c-.023.036-.048.07-.074.104l-.398.51-.5.536-.512.46-.102.082-.316.237c-.422.317-.887.58-1.36.827l-.485.227c-.08.037-.162.073-.245.107l-.494.203c-.083.034-.166.066-.25.096-.873.334-1.763.62-2.611.98l-.36.16-.357.165-.174.09-.172.093c-.117.059-.23.124-.34.191l-.412.26-.08.052-.456.342c-.045.033-.09.07-.134.11l-.452.407c-.734.72-1.293 1.583-1.724 2.508-.437.923-.749 1.91-1.13 2.883-.09.244-.197.486-.298.727-.105.242-.225.479-.338.716L0 26.162v-1.646l.045-.112c.389-.942.72-1.938 1.195-2.9.437-.899 1.005-1.764 1.73-2.492l.158-.154.511-.445.108-.085.511-.37.088-.057.088-.053c.176-.108.352-.218.533-.317l.366-.189.184-.092.374-.167c1.002-.44 2.035-.743 3.022-1.104.25-.086.49-.185.732-.28.242-.096.475-.207.71-.311.382-.192.757-.393 1.107-.626l.207-.143.304-.221c.046-.032.089-.067.13-.104l.467-.406.493-.512.378-.47.072-.097.204-.302c.485-.727.843-1.514 1.158-2.305l.104-.264c.343-.878.662-1.754 1.074-2.57.375-.748.833-1.44 1.374-2.031l.149-.159.225-.234.081-.077.458-.397.06-.05.471-.342c.057-.04.114-.08.173-.116.177-.107.351-.216.526-.318.71-.395 1.438-.679 2.132-.93.694-.25 1.36-.46 1.974-.689.86-.31 1.614-.666 2.24-1.048zM24.794.03l.063.014-.16.102c-.189.123-.407.225-.625.347-.223.114-.463.22-.712.335-.42.178-.875.355-1.36.531l-.814.294c-.44.16-.896.329-1.358.528-.646.28-1.305.623-1.926 1.065l-.306.229c-.05.039-.102.078-.152.12l-.442.396c-.271.276-.556.568-.794.896-.496.644-.896 1.386-1.23 2.18-.338.793-.617 1.638-.951 2.492-.335.852-.732 1.72-1.302 2.514l-.304.39-.156.193-.457.49-.049.046-.373.335c-.062.055-.126.11-.191.163-.204.148-.4.31-.613.449-.848.566-1.803.98-2.765 1.338-.964.359-1.94.676-2.855 1.105l-.229.106-.112.057-.332.178c-.17.084-.325.188-.483.289l-.158.1c-.05.027-.094.059-.138.09l-.455.342-.097.08-.467.42c-.708.693-1.253 1.52-1.674 2.408-.314.652-.565 1.334-.818 2.023v-1.752c.08-.177.163-.354.251-.53.426-.858.978-1.683 1.673-2.38l.163-.16.493-.428.102-.083.328-.239c.11-.077.217-.163.332-.228.172-.1.338-.211.51-.308l.53-.274c.117-.06.24-.11.36-.164.961-.431 1.956-.735 2.912-1.073.955-.338 1.878-.72 2.696-1.248.206-.127.394-.28.592-.417.084-.066.165-.135.245-.205l.344-.3.458-.474c.154-.179.293-.361.44-.54.56-.75.962-1.586 1.307-2.423.345-.838.64-1.682.998-2.482.354-.8.778-1.555 1.298-2.208.253-.335.543-.623.836-.91l.45-.39c.155-.123.32-.236.478-.352.646-.443 1.32-.777 1.976-1.05.66-.27 1.3-.482 1.898-.688.6-.201 1.155-.403 1.66-.608l.367-.16c.12-.053.236-.106.348-.16.219-.119.437-.216.628-.336l.122-.075zm-5.237.825c-.565.21-1.154.465-1.745.783l-.297.163c-.049.028-.098.058-.145.09l-.437.281-.527.4-.305.275c-.53.493-1.032 1.066-1.428 1.735-.404.663-.728 1.398-1.022 2.17-.296.773-.566 1.584-.916 2.393-.35.81-.783 1.611-1.386 2.344l-.054.07-.056.068-.47.506-.065.06-.34.305c-.137.133-.294.245-.45.36l-.115.087c-.188.153-.402.27-.606.403-.832.509-1.75.882-2.672 1.215l-1.036.376c-.574.21-1.14.431-1.684.692-.223.096-.426.223-.64.332-.212.115-.406.253-.61.377l-.19.138-.374.28-.538.481c-.589.575-1.065 1.244-1.45 1.963v-1.148c.263-.369.554-.72.877-1.043l.168-.163.567-.49.418-.304c.07-.05.14-.1.211-.148l.434-.264c.073-.043.146-.085.22-.124.228-.112.447-.242.68-.338.573-.262 1.159-.478 1.742-.68l1.044-.359c.92-.314 1.812-.66 2.616-1.133.148-.093.301-.177.445-.273l.14-.1c.148-.111.303-.212.444-.328l.484-.42.48-.498c.039-.042.07-.086.106-.129.573-.672 1.018-1.45 1.373-2.234.357-.787.642-1.59.955-2.364.31-.774.654-1.519 1.08-2.19.42-.678.944-1.256 1.497-1.752l.31-.27.55-.403.45-.28c.147-.094.305-.165.454-.248.605-.312 1.204-.558 1.776-.76.797-.284 1.529-.522 2.168-.758h.17c-.67.267-1.45.534-2.3.854zM17.152.417c-.507.25-1.028.554-1.53.933l-.37.296-.363.332-.114.116-.398.428c-.055.064-.104.133-.158.2-.435.526-.793 1.142-1.106 1.802-.224.472-.421.97-.613 1.485l-.229.624c-.27.734-.547 1.496-.927 2.241l-.305.554c-.11.181-.231.358-.347.539l-.127.176-.27.346c-.044.06-.091.116-.14.169l-.293.315c-.618.64-1.35 1.185-2.16 1.619-.717.388-1.484.69-2.255.973l-1.047.38c-.504.186-1.003.38-1.485.602l-.308.147-.598.322c-.189.121-.382.24-.568.363l-.264.198-.263.2-.506.456c-.143.14-.28.286-.41.436L0 15.844l.537-.465c.19-.146.392-.287.588-.43l.306-.19.307-.185.636-.328c.645-.305 1.31-.547 1.968-.775L5 13.247c.87-.296 1.722-.6 2.505-1.005.718-.367 1.376-.828 1.94-1.359l.15-.146.225-.233c.05-.051.1-.103.146-.156l.324-.4c.043-.054.084-.109.124-.165l.232-.342c.039-.057.076-.114.113-.172l.306-.53c.33-.616.59-1.252.835-1.88l.364-.935c.203-.513.413-1.014.65-1.49.332-.666.71-1.29 1.166-1.819.886-1.09 1.993-1.806 3.026-2.289.258-.12.512-.228.759-.327h.228c-.304.124-.619.262-.94.418zM14.327.52c-.8.648-1.535 1.548-2.107 2.65-.277.555-.525 1.152-.758 1.78l-.28.767c-.143.39-.29.786-.455 1.185-.274.665-.597 1.342-1.035 1.975-.44.643-.964 1.225-1.588 1.748-.63.512-1.347.937-2.106 1.286-.542.25-1.102.464-1.665.67l-.676.247c-.788.286-1.571.585-2.302.971-.367.19-.72.41-1.048.644l-.307.23v-.665l.201-.134c.295-.19.597-.363.91-.517.68-.341 1.386-.606 2.086-.849l.98-.335c.563-.193 1.116-.392 1.646-.624.742-.323 1.436-.716 2.05-1.193.601-.482 1.134-1.051 1.559-1.647.435-.602.765-1.254 1.049-1.904.285-.651.527-1.302.773-1.929.249-.627.513-1.226.807-1.784.603-1.108 1.378-2.013 2.195-2.648.207-.163.415-.31.62-.444h.157c-.235.155-.472.327-.706.52zm-2.572.631c-.518.75-.945 1.684-1.332 2.729-.366.968-.701 2.044-1.261 3.105l-.252.46-.316.488c-.031.046-.063.092-.097.137l-.315.407-.08.102-.49.53-.53.48-.342.26c-.114.088-.23.173-.351.254l-.185.116c-1.227.8-2.684 1.254-4.081 1.779-.702.262-1.394.548-2.036.915l-.087.05v-.574l.09-.047c.609-.305 1.242-.546 1.868-.765 1.341-.468 2.677-.86 3.823-1.517l.227-.135c.307-.172.578-.387.856-.586l.515-.444.499-.514.384-.473c.045-.057.086-.116.127-.175l.287-.421.12-.207c.602-1.01.978-2.07 1.362-3.044l.097-.241c.414-1.042.87-1.98 1.413-2.726.304-.426.631-.786.952-1.094l.099.001c-.326.322-.658.7-.964 1.15zM10.788 0l-.027.035-.358.552-.205.374c-.098.169-.181.353-.27.542-.357.754-.663 1.643-1.016 2.61l-.188.488c-.096.248-.198.499-.312.75l-.12.252c-.112.256-.258.503-.397.759l-.074.126-.16.247c-.083.123-.155.253-.253.37-.714.969-1.694 1.854-2.886 2.472-1.178.644-2.51 1.041-3.785 1.541-.248.098-.495.201-.738.31v-.51c.19-.077.379-.149.568-.218 1.315-.478 2.63-.837 3.783-1.43 1.096-.535 2.011-1.296 2.714-2.154l.13-.162c.048-.054.09-.113.131-.173l.285-.416c.026-.04.052-.08.075-.12l.213-.366c.035-.06.069-.122.102-.183l.093-.185c.256-.488.456-.984.651-1.458l.437-1.109c.213-.534.423-1.034.65-1.485l.14-.277.072-.133.292-.5.376-.55h.077zM8.484 1.391l-.077.202c-.279.727-.547 1.564-.922 2.454-.378.885-.87 1.835-1.638 2.675-.75.836-1.736 1.578-2.871 2.097-.947.457-1.972.79-2.977 1.172L0 9.532c.975-.338 1.937-.63 2.82-1.028 1.117-.476 2.074-1.158 2.832-1.954.76-.787 1.27-1.705 1.668-2.57.396-.87.688-1.7.988-2.422.244-.6.496-1.122.74-1.559h.065c-.208.396-.422.863-.629 1.393zm-1.33-.272l-.309.852c-.21.578-.448 1.21-.779 1.86l-.16.305c-.028.051-.056.102-.086.153l-.09.152c-.089.156-.19.306-.294.458l-.105.151c-.045.07-.097.136-.15.201l-.079.099c-.08.098-.159.201-.242.298l-.397.425-.147.134c-.771.733-1.749 1.341-2.821 1.802-.486.211-.989.4-1.495.586V8.18c.461-.157.913-.314 1.35-.49.984-.39 1.877-.9 2.615-1.522l.167-.145.147-.125.402-.408.123-.14.118-.14c.053-.061.106-.122.156-.185l.073-.097c.108-.145.215-.288.313-.435l.094-.148c.13-.194.24-.395.348-.59.432-.788.722-1.561.994-2.24l.164-.418C7.225.691 7.377.323 7.521 0h.061c-.136.33-.278.706-.429 1.121zm-1.534.303l-.141.358c-.22.548-.487 1.142-.855 1.742-.187.305-.4.609-.643.909l-.15.18c-.033.04-.067.08-.103.117l-.319.337-.067.061c-.182.16-.356.336-.553.49-.718.586-1.584 1.061-2.51 1.455l-.28.115V6.81l.141-.054c.919-.358 1.768-.792 2.482-1.337.146-.108.28-.228.415-.345l.203-.172.35-.35c.028-.027.054-.055.078-.084.303-.333.572-.684.804-1.036.464-.705.782-1.414 1.05-2.046C5.735.87 5.914.402 6.074 0h.062l-.304.848-.213.576zm-1.394-.177c-.264.592-.597 1.253-1.084 1.902l-.186.244-.274.322-.293.31-.039.038-.54.49-.554.422c-.388.272-.81.514-1.256.735v-.335c.39-.184.76-.385 1.104-.61l.55-.392.499-.423.078-.07.153-.15.15-.15.274-.302.19-.232c.498-.62.85-1.261 1.131-1.84.21-.44.379-.847.523-1.206h.065l-.121.329c-.106.283-.228.591-.37.918zm-1.348-.4l-.097.183c-.135.274-.315.545-.5.836l-.1.141-.328.432-.059.072-.481.527-.407.372-.153.136-.502.383c-.082.057-.166.113-.251.167v-.288l.111-.07.501-.356.154-.128.41-.349.493-.504.06-.068.333-.409c.036-.044.07-.09.104-.135l.225-.328c.073-.108.142-.214.206-.32l.091-.16c.207-.348.37-.68.508-.98h.071c-.108.26-.234.546-.389.847zM1.275.779l-.252.363-.295.369-.105.124L.283 2c-.02.02-.04.041-.065.062l-.218.2V2.03l.1-.085.062-.054.354-.354c.037-.039.074-.078.107-.118l.302-.349.262-.349c.18-.253.335-.495.468-.722h.082c-.13.243-.283.504-.462.779z"/>
        <linearGradient id="1qp0au9syc" x1="68.057%" x2="24.451%" y1="1.82%" y2="83.922%">
            <stop offset="0%" stop-opacity="0"/>
            <stop offset="54.693%" stop-opacity=".14"/>
            <stop offset="100%" stop-opacity="0"/>
        </linearGradient>
        <filter id="0j78ipxv7e" width="119.2%" height="112.5%" x="-9.6%" y="-6.2%" filterUnits="objectBoundingBox">
            <feGaussianBlur in="SourceAlpha" result="shadowBlurInner1" stdDeviation="2"/>
            <feOffset dy="1" in="shadowBlurInner1" result="shadowOffsetInner1"/>
            <feComposite in="shadowOffsetInner1" in2="SourceAlpha" k2="-1" k3="1" operator="arithmetic" result="shadowInnerInner1"/>
            <feColorMatrix in="shadowInnerInner1" values="0 0 0 0 0 0 0 0 0 0 0 0 0 0 0 0 0 0 0.1 0"/>
        </filter>
    </defs>
    <g fill="none" fill-rule="evenodd">
        <g>
            <g>
                <g>
                    <g transform="translate(-109 -93) translate(83 77) translate(17 16) translate(9)">
                        <mask id="dysg1tbzmb" fill="#fff">
                            <use xlink:href="#5b6phz727a"/>
                        </mask>
                        <use fill="#F2F2F2" xlink:href="#5b6phz727a"/>
                        <g mask="url(#dysg1tbzmb)" opacity=".48">
                            <use fill="url(#1qp0au9syc)" fill-opacity=".2" xlink:href="#aofbr68med"/>
                            <use fill="#000" filter="url(#0j78ipxv7e)" xlink:href="#aofbr68med"/>
                        </g>
                        <g>
                            <path fill="#ED6328" d="M3.256 4.66L5.67 4.66 5.67 0.558 3.256 0.558z" transform="translate(14.793 32.609)"/>
                            <path fill="#DA3831" d="M3.41 2.609c0-.832.412-1.574 1.053-2.051C3.994.208 3.402 0 2.758 0 1.235 0 0 1.168 0 2.609c0 1.44 1.235 2.608 2.758 2.608.644 0 1.236-.208 1.705-.557-.641-.478-1.053-1.22-1.053-2.051" transform="translate(14.793 32.609)"/>
                            <path fill="#F6AB3D" d="M8.926 2.609c0 1.44-1.235 2.608-2.758 2.608-.643 0-1.236-.208-1.705-.557.642-.478 1.054-1.22 1.054-2.051 0-.832-.412-1.574-1.054-2.051C4.933.208 5.525 0 6.168 0c1.523 0 2.758 1.168 2.758 2.609" transform="translate(14.793 32.609)"/>
                        </g>
                        <g>
                            <path fill="#000" d="M1.591 6.946L7.161 6.946 7.161 1.543 1.591 1.543z" transform="translate(2.241 30.87)"/>
                            <path fill="#FF7900" d="M0 5.402L5.57 5.402 5.57 0 0 0z" transform="translate(2.241 30.87)"/>
                            <path fill="#FFF" d="M0.796 4.63L4.774 4.63 4.774 3.859 0.796 3.859z" transform="translate(2.241 30.87)"/>
                        </g>
                    </g>
                </g>
            </g>
        </g>
    </g>
</svg>
